<svg width="50" height="50" viewBox="0 0 50 50" fill="none" xmlns="http://www.w3.org/2000/svg">
<path d="M45 0H5C2.23858 0 0 2.23858 0 5V45C0 47.7614 2.23858 50 5 50H45C47.7614 50 50 47.7614 50 45V5C50 2.23858 47.7614 0 45 0Z" fill="#F44336"/>
<path d="M9 39H37.8V35.8889H9V39ZM37.8 18.7778H34.6V14.1111H37.8V18.7778ZM37.8 11H12.2V26.5556C12.2 28.2058 12.8743 29.7884 14.0745 30.9553C15.2747 32.1222 16.9026 32.7778 18.6 32.7778H28.2C29.8974 32.7778 31.5252 32.1222 32.7255 30.9553C33.9257 29.7884 34.6 28.2058 34.6 26.5556V21.8889H37.8C38.6487 21.8889 39.4626 21.5611 40.0627 20.9777C40.6629 20.3942 41 19.6029 41 18.7778V14.1111C41 12.3844 39.56 11 37.8 11Z" fill="white"/>
</svg>
